<svg width="79" height="22" viewBox="0 0 79 22" fill="none" xmlns="http://www.w3.org/2000/svg">
<path d="M0.639205 7.19105V4.90909H11.3906V7.19105H7.38281V18H4.64702V7.19105H0.639205ZM13.818 18H10.8521L15.3713 4.90909H18.938L23.4508 18H20.4849L17.2058 7.90057H17.1035L13.818 18ZM13.6326 12.8544H20.6383V15.0149H13.6326V12.8544ZM31.8292 8.67401C31.7781 8.15838 31.5586 7.75781 31.1708 7.4723C30.783 7.18679 30.2567 7.04403 29.592 7.04403C29.1403 7.04403 28.7589 7.10795 28.4478 7.2358C28.1367 7.35937 27.8981 7.53196 27.7319 7.75355C27.57 7.97514 27.489 8.22656 27.489 8.50781C27.4805 8.74219 27.5295 8.94673 27.636 9.12145C27.7468 9.29616 27.8981 9.44744 28.0898 9.57528C28.2816 9.69886 28.5032 9.80753 28.7546 9.90128C29.006 9.99077 29.2745 10.0675 29.56 10.1314L30.7362 10.4126C31.3072 10.5405 31.8313 10.7109 32.3086 10.924C32.7859 11.1371 33.1992 11.3991 33.5487 11.7102C33.8981 12.0213 34.1687 12.3878 34.3604 12.8097C34.5565 13.2315 34.6566 13.7152 34.6609 14.2607C34.6566 15.0618 34.4521 15.7564 34.0472 16.3445C33.6467 16.9283 33.0671 17.3821 32.3086 17.706C31.5543 18.0256 30.6445 18.1854 29.5792 18.1854C28.5224 18.1854 27.6019 18.0234 26.8178 17.6996C26.038 17.3757 25.4286 16.8963 24.9897 16.2614C24.555 15.6222 24.3271 14.8317 24.3058 13.8899H26.984C27.0138 14.3288 27.1396 14.6953 27.3612 14.9893C27.587 15.2791 27.8874 15.4986 28.2624 15.6477C28.6417 15.7926 29.07 15.8651 29.5472 15.8651C30.016 15.8651 30.4229 15.7969 30.7681 15.6605C31.1175 15.5241 31.3881 15.3345 31.5799 15.0916C31.7717 14.8487 31.8675 14.5696 31.8675 14.2543C31.8675 13.9602 31.7802 13.7131 31.6055 13.5128C31.435 13.3125 31.1836 13.142 30.8512 13.0014C30.5231 12.8608 30.1204 12.733 29.6431 12.6179L28.2177 12.2599C27.114 11.9915 26.2425 11.5717 25.6033 11.0007C24.9641 10.4297 24.6467 9.66051 24.6509 8.69318C24.6467 7.90057 24.8576 7.2081 25.2837 6.61577C25.7141 6.02344 26.3043 5.56108 27.0543 5.22869C27.8043 4.89631 28.6566 4.73011 29.6112 4.73011C30.5827 4.73011 31.4308 4.89631 32.1552 5.22869C32.8839 5.56108 33.4506 6.02344 33.8555 6.61577C34.2603 7.2081 34.4691 7.89418 34.4819 8.67401H31.8292ZM36.5225 18V4.90909H39.2903V10.6811H39.4629L44.1738 4.90909H47.4913L42.6333 10.7706L47.5488 18H44.2377L40.6518 12.6179L39.2903 14.2798V18H36.5225Z" fill="#DD2428"/>
<path d="M48.7926 18V11.4545H51.081C51.5369 11.4545 51.913 11.5334 52.2092 11.6911C52.5053 11.8466 52.7259 12.0565 52.8707 12.3207C53.0156 12.5827 53.0881 12.8736 53.0881 13.1932C53.0881 13.4744 53.038 13.7067 52.9379 13.8899C52.8398 14.0732 52.7099 14.218 52.5479 14.3246C52.3881 14.4311 52.2145 14.5099 52.027 14.5611V14.625C52.2273 14.6378 52.4286 14.7081 52.631 14.8359C52.8335 14.9638 53.0028 15.147 53.1392 15.3857C53.2756 15.6243 53.3438 15.9162 53.3438 16.2614C53.3438 16.5895 53.2692 16.8846 53.12 17.1467C52.9709 17.4087 52.7354 17.6165 52.4137 17.7699C52.092 17.9233 51.6733 18 51.1577 18H48.7926ZM49.5852 17.2969H51.1577C51.6754 17.2969 52.043 17.1967 52.2603 16.9964C52.4798 16.794 52.5895 16.549 52.5895 16.2614C52.5895 16.0398 52.533 15.8352 52.4201 15.6477C52.3072 15.4581 52.1463 15.3068 51.9375 15.1939C51.7287 15.0788 51.4815 15.0213 51.196 15.0213H49.5852V17.2969ZM49.5852 14.331H51.0554C51.294 14.331 51.5092 14.2841 51.701 14.1903C51.8949 14.0966 52.0483 13.9645 52.1612 13.794C52.2763 13.6236 52.3338 13.4233 52.3338 13.1932C52.3338 12.9055 52.2337 12.6616 52.0334 12.4613C51.8331 12.2589 51.5156 12.1577 51.081 12.1577H49.5852V14.331ZM60.1689 14.7273C60.1689 15.4176 60.0442 16.0142 59.7949 16.517C59.5456 17.0199 59.2037 17.4077 58.769 17.6804C58.3343 17.9531 57.8379 18.0895 57.2797 18.0895C56.7214 18.0895 56.225 17.9531 55.7903 17.6804C55.3556 17.4077 55.0137 17.0199 54.7644 16.517C54.5151 16.0142 54.3904 15.4176 54.3904 14.7273C54.3904 14.0369 54.5151 13.4403 54.7644 12.9375C55.0137 12.4347 55.3556 12.0469 55.7903 11.7741C56.225 11.5014 56.7214 11.3651 57.2797 11.3651C57.8379 11.3651 58.3343 11.5014 58.769 11.7741C59.2037 12.0469 59.5456 12.4347 59.7949 12.9375C60.0442 13.4403 60.1689 14.0369 60.1689 14.7273ZM59.4018 14.7273C59.4018 14.1605 59.307 13.6822 59.1174 13.2923C58.9299 12.9023 58.6752 12.6072 58.3535 12.407C58.0339 12.2067 57.676 12.1065 57.2797 12.1065C56.8833 12.1065 56.5243 12.2067 56.2026 12.407C55.883 12.6072 55.6284 12.9023 55.4387 13.2923C55.2512 13.6822 55.1575 14.1605 55.1575 14.7273C55.1575 15.294 55.2512 15.7724 55.4387 16.1623C55.6284 16.5522 55.883 16.8473 56.2026 17.0476C56.5243 17.2479 56.8833 17.348 57.2797 17.348C57.676 17.348 58.0339 17.2479 58.3535 17.0476C58.6752 16.8473 58.9299 16.5522 59.1174 16.1623C59.307 15.7724 59.4018 15.294 59.4018 14.7273ZM61.4624 18H60.6315L63.0349 11.4545H63.8531L66.2565 18H65.4255L63.4695 12.4901H63.4184L61.4624 18ZM61.7693 15.4432H65.1187V16.1463H61.7693V15.4432ZM67.276 18V11.4545H69.4877C69.999 11.4545 70.4188 11.5419 70.7469 11.7166C71.075 11.8892 71.3179 12.1268 71.4756 12.4293C71.6333 12.7319 71.7121 13.076 71.7121 13.4616C71.7121 13.8473 71.6333 14.1893 71.4756 14.4876C71.3179 14.7859 71.0761 15.0202 70.7501 15.1907C70.4241 15.359 70.0075 15.4432 69.5004 15.4432H67.7107V14.7273H69.4749C69.8243 14.7273 70.1056 14.6761 70.3186 14.5739C70.5338 14.4716 70.6894 14.3267 70.7852 14.1392C70.8833 13.9496 70.9323 13.7237 70.9323 13.4616C70.9323 13.1996 70.8833 12.9705 70.7852 12.7745C70.6872 12.5785 70.5306 12.4272 70.3154 12.3207C70.1002 12.212 69.8158 12.1577 69.4621 12.1577H68.0686V18H67.276ZM70.357 15.0597L71.9678 18H71.0473L69.4621 15.0597H70.357ZM75.0527 18H73.0328V11.4545H75.1422C75.7772 11.4545 76.3205 11.5856 76.7722 11.8477C77.2239 12.1076 77.5701 12.4815 77.8109 12.9695C78.0517 13.4553 78.1721 14.0369 78.1721 14.7145C78.1721 15.3963 78.0506 15.9833 77.8077 16.4755C77.5648 16.9656 77.2111 17.3427 76.7466 17.6069C76.2821 17.869 75.7175 18 75.0527 18ZM73.8255 17.2969H75.0016C75.5428 17.2969 75.9913 17.1925 76.3471 16.9837C76.7029 16.7749 76.9682 16.4776 77.1429 16.092C77.3176 15.7063 77.405 15.2472 77.405 14.7145C77.405 14.1861 77.3187 13.7312 77.1461 13.3498C76.9735 12.9663 76.7157 12.6722 76.3727 12.4677C76.0297 12.261 75.6025 12.1577 75.0911 12.1577H73.8255V17.2969Z" fill="#6DC5EB"/>
</svg>
